<svg width="100" height="100" viewBox="0 0 100 100" fill="none" xmlns="http://www.w3.org/2000/svg">
<g clip-path="url(#clip0_1_2)">
<path d="M50 0C22.38 0 0 22.38 0 50C0 77.62 22.38 100 50 100C77.62 100 100 77.62 100 50C100 22.38 77.62 0 50 0ZM50 90C27.91 90 10 72.09 10 50C10 27.91 27.91 10 50 10C72.09 10 90 27.91 90 50C90 72.09 72.09 90 50 90Z" fill="url(#paint0_linear_1_2)"/>
<path d="M50 20C33.43 20 20 33.43 20 50C20 66.57 33.43 80 50 80C66.57 80 80 66.57 80 50C80 33.43 66.57 20 50 20ZM50 70C38.96 70 30 61.05 30 50C30 38.95 38.96 30 50 30C61.05 30 70 38.95 70 50C70 61.05 61.05 70 50 70Z" fill="url(#paint1_linear_1_2)"/>
<path d="M60 45H55V40C55 37.24 52.76 35 50 35C47.24 35 45 37.24 45 40V45H40C37.24 45 35 47.24 35 50C35 52.76 37.24 55 40 55H45V60C45 62.76 47.24 65 50 65C52.76 65 55 62.76 55 60V55H60C62.76 55 65 52.76 65 50C65 47.24 62.76 45 60 45Z" fill="url(#paint2_linear_1_2)"/>
</g>
<defs>
<linearGradient id="paint0_linear_1_2" x1="0" y1="0" x2="100" y2="100" gradientUnits="userSpaceOnUse">
<stop stop-color="#7AF6FF"/>
<stop offset="1" stop-color="#0D3B66"/>
</linearGradient>
<linearGradient id="paint1_linear_1_2" x1="20" y1="20" x2="80" y2="80" gradientUnits="userSpaceOnUse">
<stop stop-color="#F9A826"/>
<stop offset="1" stop-color="#F9D423"/>
</linearGradient>
<linearGradient id="paint2_linear_1_2" x1="35" y1="35" x2="65" y2="65" gradientUnits="userSpaceOnUse">
<stop stop-color="#E0E0E0"/>
<stop offset="1" stop-color="#BDBDBD"/>
</linearGradient>
<clipPath id="clip0_1_2">
<rect width="100" height="100" fill="white"/>
</clipPath>
</defs>
</svg>
